mtllib LINK3_LOWER_Mesh.mtl
v 4.765872168250374e-16 -0.045500002161134034 0.14350000681588426
v 0.004459779951208054 -0.045280908827973754 0.14350000681588426
v 4.765872168250374e-16 -0.045500002161134034 0.14850000705337152
v 0.008876610223862436 -0.044625730726786106 0.14350000681588426
v 0.013207953126733729 -0.04354078881124046 0.14350000681588426
v 0.008876610223862436 -0.044625730726786106 0.14850000705337152
v 0.004459779951208054 -0.045280908827973754 0.14850000705337152
v 0.017412096850589753 -0.0420365200935513 0.14350000681588426
v 0.02144855219673003 -0.04012742042401651 0.14350000681588426
v 0.02144855219673003 -0.04012742042401651 0.14850000705337152
v 0.025278447398171533 -0.03783186901493485 0.14350000681588426
v 0.028864896237952298 -0.03517197585270804 0.14350000681588426
v 0.028864896237952298 -0.03517197585270804 0.14850000705337152
v 0.025278447398171533 -0.03783186901493485 0.14850000705337152
v 0.013207953126733729 -0.04354078881124046 0.14850000705337152
v 0.03217336044538888 -0.03217336044538888 0.14350000681588426
v 0.03517197585270804 -0.028864896237952298 0.14350000681588426
v 0.03217336044538888 -0.03217336044538888 0.14850000705337152
v 0.03783186901493485 -0.025278447398171533 0.14350000681588426
v 0.04012742042401651 -0.02144855219673003 0.14350000681588426
v 0.04012742042401651 -0.02144855219673003 0.14850000705337152
v 0.03517197585270804 -0.028864896237952298 0.14850000705337152
v 0.0420365200935513 -0.017412096850589753 0.14350000681588426
v 0.04354078881124046 -0.013207953126733729 0.14350000681588426
v 0.04354078881124046 -0.013207953126733729 0.14850000705337152
v 0.044625730726786106 -0.008876610223862436 0.14350000681588426
v 0.045280908827973754 -0.004459779951208054 0.14350000681588426
v 0.045280908827973754 -0.004459779951208054 0.14850000705337152
v 0.044625730726786106 -0.008876610223862436 0.14850000705337152
v 0.0420365200935513 -0.017412096850589753 0.14850000705337152
v 0.017412096850589753 -0.0420365200935513 0.14850000705337152
v 0.03783186901493485 -0.025278447398171533 0.14850000705337152
v 0.045500002161134034 4.7380114237007e-16 0.14850000705337152
v 0.045500002161134034 4.7380114237007e-16 0.14350000681588426
v 0.045280908827973754 0.004459779951208054 0.14350000681588426
v 0.044625730726786106 0.008876610223862436 0.14350000681588426
v 0.044625730726786106 0.008876610223862436 0.14850000705337152
v 0.04354078881124046 0.013207953126733729 0.14350000681588426
v 0.0420365200935513 0.017412096850589753 0.14350000681588426
v 0.0420365200935513 0.017412096850589753 0.14850000705337152
v 0.04354078881124046 0.013207953126733729 0.14850000705337152
v 0.04012742042401651 0.02144855219673003 0.14350000681588426
v 0.03783186901493485 0.025278447398171533 0.14350000681588426
v 0.03783186901493485 0.025278447398171533 0.14850000705337152
v 0.03517197585270804 0.028864896237952298 0.14350000681588426
v 0.03217336044538888 0.03217336044538888 0.14350000681588426
v 0.03217336044538888 0.03217336044538888 0.14850000705337152
v 0.03517197585270804 0.028864896237952298 0.14850000705337152
v 0.04012742042401651 0.02144855219673003 0.14850000705337152
v 0.028864896237952298 0.03517197585270804 0.14350000681588426
v 0.025278447398171533 0.03783186901493485 0.14350000681588426
v 0.025278447398171533 0.03783186901493485 0.14850000705337152
v 0.02144855219673003 0.04012742042401651 0.14350000681588426
v 0.017412096850589753 0.0420365200935513 0.14350000681588426
v 0.017412096850589753 0.0420365200935513 0.14850000705337152
v 0.02144855219673003 0.04012742042401651 0.14850000705337152
v 0.013207953126733729 0.04354078881124046 0.14350000681588426
v 0.008876610223862436 0.044625730726786106 0.14350000681588426
v 0.008876610223862436 0.044625730726786106 0.14850000705337152
v 0.004459779951208054 0.045280908827973754 0.14350000681588426
v -4.710150679151026e-16 0.045500002161134034 0.14350000681588426
v -4.710150679151026e-16 0.045500002161134034 0.14850000705337152
v 0.004459779951208054 0.045280908827973754 0.14850000705337152
v 0.013207953126733729 0.04354078881124046 0.14850000705337152
v 0.028864896237952298 0.03517197585270804 0.14850000705337152
v 0.045280908827973754 0.004459779951208054 0.14850000705337152
v 0.004156193453786761 0.046067751211538166 0.14850000705337152
v 1.0315728761563463e-12 0.046254846862514576 0.14850000705337152
v 1.0315786493163485e-12 0.04586032703786769 0.1745743033357794
v 0.00834484807549718 0.04509474777787181 0.1745743033357794
v 0.0084166359130744 0.0454826834347255 0.14850000705337152
v 0.012618770245050315 0.044090170093438186 0.1745743033357794
v 0.012727325090294284 0.044469461645877395 0.14850000705337152
v 0.01688082393717205 0.04264056980485931 0.1745743033357794
v 0.017026043746926067 0.043007391111344884 0.14850000705337152
v 0.02531090284404902 0.038715467384540236 0.14850000705337152
v 0.021244437273094663 0.04108770947109264 0.14850000705337152
v 0.025095019578790234 0.03838525191475428 0.1745743033357794
v 0.021063237237022303 0.040737260846048784 0.1745743033357794
v 0.029154118968974796 0.03591056612826771 0.14850000705337152
v 0.02890545600855554 0.035604276440868166 0.1745743033357794
v 1.031582646119427e-12 0.045524160640064704 0.1864293301439801
v 0.004120743947250705 0.045674825930424046 0.1745743033357794
v 0.012526272415034345 0.04376698129634926 0.1864293301439801
v 0.008283679401937527 0.04476419661471054 0.1864293301439801
v 0.020908839265211254 0.04043865014460968 0.1864293301439801
v 0.028693572453569738 0.03534329010034698 0.1864293301439801
v 0.024911069145858722 0.03810388364577477 0.1864293301439801
v 0.016757084688741042 0.042328008754857205 0.1864293301439801
v 0.032427915206014735 0.032428704848386225 0.1745743033357794
v 0.0410872745955837 0.02124527459918424 0.14850000705337152
v 0.03871489899462066 0.025311774502415618 0.14850000705337152
v 0.03838468733953215 0.025095883607761937 0.1745743033357794
v 0.03590987185333239 0.029154975368551606 0.14850000705337152
v 0.0327068840303002 0.032707677487369136 0.14850000705337152
v 0.03560358598063029 0.028906302871388734 0.1745743033357794
v 0.04408999461735563 0.012619381550316167 0.1745743033357794
v 0.04548260332607912 0.008417076510629506 0.14850000705337152
v 0.04446928616979484 0.012727942117606306 0.14850000705337152
v 0.04509466766922543 0.00834528485835484 0.1745743033357794
v 0.04606773213805093 0.0041564251966566546 0.14850000705337152
v 0.040736829785237294 0.021064066933716985 0.1745743033357794
v 0.04300709356494403 0.01702679524232309 0.14850000705337152
v 0.0426402760731559 0.01688156780317418 0.1745743033357794
v 0.035342607269504 0.028694415501705484 0.1864293301439801
v 0.040438222898495635 0.020909663239859766 0.1864293301439801
v 0.03810332288525009 0.02491192554543553 0.1864293301439801
v 0.044764116506064155 0.00828411237009774 0.1864293301439801
v 0.04567480685693681 0.004120973782771875 0.1745743033357794
v 0.04534000230612234 0.004090766624202102 0.1864293301439801
v 0.045524160640064704 4.1036840587464995e-10 0.1864293301439801
v 0.04586032703786769 4.1036840587464995e-10 0.1745743033357794
v 0.04376680582026671 0.012526878951928389 0.1864293301439801
v 0.046254846862514576 4.1036840587464995e-10 0.14850000705337152
v 0.0423277150231538 0.016757822832697 0.1864293301439801
v 0.0321902137787089 0.032190995791685495 0.1864293301439801
v 1.0315876421232751e-12 0.04506980728596455 0.19699999409820812
v 0.004090538219192474 0.045340021379609574 0.1864293301439801
v 0.00820100346417274 0.04431742687913465 0.19699999409820812
v 0.004049712373442316 0.04488750670967878 0.19699999409820812
v 0.01658984072327785 0.041905550086109855 0.19699999409820812
v 0.024662442425065212 0.037723585013209604 0.19699999409820812
v 0.02070015814873205 0.040035051340039374 0.19699999409820812
v 0.01240125333560993 0.043330164106412106 0.19699999409820812
v 0.028407195486842562 0.034990545027440145 0.19699999409820812
v 0.03186893805238955 0.031869712435971254 0.19699999409820812
v 0.04003462790862278 0.02070097449398567 0.19699999409820812
v 0.037723031882079816 0.024663291195247128 0.19699999409820812
v 0.04332998863032955 0.012401854150457803 0.19699999409820812
v 0.0448874838214941 0.004049938394266039 0.19699999409820812
v 0.044317346770488264 0.008201432617635507 0.19699999409820812
v 0.0419052601691039 0.016590571237838914 0.19699999409820812
v 0.03498986982599206 0.02840802899823469 0.19699999409820812
v 0.04506980728596455 4.1036837745293917e-10 0.19699999409820812
v 0.04409007091130457 -0.012618844631650528 0.1745743033357794
v 0.04446936246374378 -0.012727400430568858 0.14850000705337152
v 0.04548263765835614 -0.008416672152700144 0.14850000705337152
v 0.042640394328776754 -0.016880942192792903 0.1745743033357794
v 0.04300721563526233 -0.017026163909895642 0.14850000705337152
v 0.0450947058161999 -0.008344884315122925 0.1745743033357794
v 0.046067739767445826 -0.004156202990530378 0.14850000705337152
v 0.04108743862757391 -0.021244599397736152 0.14850000705337152
v 0.04073699381722751 -0.021063399361663793 0.1745743033357794
v 0.03591009692048175 -0.029154342128775435 0.14850000705337152
v 0.038715097358887895 -0.02531110311566498 0.14850000705337152
v 0.035603811047779654 -0.028905677261007456 0.1745743033357794
v 0.03838488570379939 -0.025095216035708745 0.1745743033357794
v 0.03242814790255899 -0.03242814790255899 0.1745743033357794
v 0.045674814486331705 -0.004120753483994322 0.1745743033357794
v 0.04534001375021468 -0.0040905477559360914 0.1864293301439801
v 0.043766882114215644 -0.012526346801634558 0.1864293301439801
v 0.04476415083834118 -0.00828371468788891 0.1864293301439801
v 0.0404383831157884 -0.020909001389852744 0.1864293301439801
v 0.035342828521955916 -0.028693793706021653 0.1864293301439801
v 0.03810351743481988 -0.024911265602777233 0.1864293301439801
v 0.04232783327877465 -0.016757202944361893 0.1864293301439801
v 0.032707116726844454 -0.032707116726844454 0.14850000705337152
v 0.017026163909895642 -0.04300721563526233 0.14850000705337152
v 0.021244601305084876 -0.04108743862757391 0.14850000705337152
v 0.021063399361663793 -0.04073699381722751 0.1745743033357794
v 0.02531110311566498 -0.038715097358887895 0.14850000705337152
v 0.029154342128775435 -0.03591009692048175 0.14850000705337152
v 0.028905677261007456 -0.035603811047779654 0.1745743033357794
v 0.02509521794305747 -0.03838488570379939 0.1745743033357794
v 0.008344885268797286 -0.04509470200150245 0.1745743033357794
v 0.004156202990530378 -0.046067739767445826 0.14850000705337152
v 0.008416673106374506 -0.04548263765835614 0.14850000705337152
v 0.01261884558532489 -0.04409006709660712 0.1745743033357794
v 0.012727400430568858 -0.04446935864904633 0.14850000705337152
v 0.0041207539608315025 -0.045674814486331705 0.1745743033357794
v 1.0325720769259684e-12 -0.046254846862514576 0.14850000705337152
v 0.016880944100141626 -0.042640394328776754 0.1745743033357794
v 0.028693793706021653 -0.035342828521955916 0.1864293301439801
v 0.020909001389852744 -0.0404383831157884 0.1864293301439801
v 0.024911265602777233 -0.03810351743481988 0.1864293301439801
v 0.012526346801634558 -0.043766882114215644 0.1864293301439801
v 0.0040905477559360914 -0.045340009935517234 0.1864293301439801
v 1.0325664147882739e-12 -0.04586032322317024 0.1745743033357794
v 0.008283715641563272 -0.04476415083834118 0.1864293301439801
v 0.016757202944361893 -0.04232783327877465 0.1864293301439801
v 0.03219044266055571 -0.03219044266055571 0.1864293301439801
v 1.0325624179851954e-12 -0.045524160640064704 0.1864293301439801
v 0.04488749526558644 -0.004049721433348752 0.19699999409820812
v 0.044317381102765285 -0.008201038750124123 0.19699999409820812
v 0.04190537842472475 -0.016589957071549977 0.19699999409820812
v 0.037723226431649604 -0.024662636974635 0.19699999409820812
v 0.040034788125915544 -0.020700318366024817 0.19699999409820812
v 0.04333006492427849 -0.01240132676853578 0.19699999409820812
v 0.03499008726374653 -0.02840741292459703 0.19699999409820812
v 0.031869165026887636 -0.031869165026887636 0.19699999409820812
v 0.028407414831945754 -0.03499008726374653 0.19699999409820812
v 0.020700318366024817 -0.040034788125915544 0.19699999409820812
v 0.024662636974635 -0.037723226431649604 0.19699999409820812
v 0.008201039703798485 -0.044317381102765285 0.19699999409820812
v 0.012401327722210143 -0.04333006492427849 0.19699999409820812
v 0.016589957071549977 -0.04190537842472475 0.19699999409820812
v 0.004049721910185933 -0.04488749526558644 0.19699999409820812
v 1.032557533003655e-12 -0.04506980728596455 0.19699999409820812
v 1.0325664147882739e-12 -0.04586032322317024 0.1745743033357794
v -0.004156193453786761 -0.046067751211538166 0.14850000705337152
v 1.0325720769259684e-12 -0.046254846862514576 0.14850000705337152
v -0.012618770245050315 -0.044090170093438186 0.1745743033357794
v -0.012727325090294284 -0.044469461645877395 0.14850000705337152
v -0.0084166359130744 -0.0454826834347255 0.14850000705337152
v -0.00834484807549718 -0.04509474777787181 0.1745743033357794
v -0.01688082393717205 -0.04264056980485931 0.1745743033357794
v -0.017026043746926067 -0.043007391111344884 0.14850000705337152
v -0.02531090284404902 -0.038715467384540236 0.14850000705337152
v -0.021244437273094663 -0.04108770947109264 0.14850000705337152
v -0.025095019578790234 -0.03838525191475428 0.1745743033357794
v -0.021063237237022303 -0.040737260846048784 0.1745743033357794
v -0.029154118968974796 -0.03591056612826771 0.14850000705337152
v -0.02890545600855554 -0.035604276440868166 0.1745743033357794
v 1.0325624179851954e-12 -0.045524160640064704 0.1864293301439801
v -0.004120743947250705 -0.045674825930424046 0.1745743033357794
v -0.012526272415034345 -0.04376698129634926 0.1864293301439801
v -0.008283679401937527 -0.04476419661471054 0.1864293301439801
v -0.020908839265211254 -0.04043865014460968 0.1864293301439801
v -0.028693572453569738 -0.03534329010034698 0.1864293301439801
v -0.024911069145858722 -0.03810388364577477 0.1864293301439801
v -0.016757084688741042 -0.04232800494015976 0.1864293301439801
v -0.032427915206014735 -0.032428704848386225 0.1745743033357794
v -0.0410872745955837 -0.021245272691835515 0.14850000705337152
v -0.03871489899462066 -0.025311774502415618 0.14850000705337152
v -0.03838468733953215 -0.025095881700413214 0.1745743033357794
v -0.03590987185333239 -0.029154973461202882 0.14850000705337152
v -0.0327068840303002 -0.032707677487369136 0.14850000705337152
v -0.03560358598063029 -0.028906302871388734 0.1745743033357794
v -0.04548260332607912 -0.008417075556955145 0.14850000705337152
v -0.04446928616979484 -0.012727941163931944 0.14850000705337152
v -0.04408999461735563 -0.012619380596641805 0.1745743033357794
v -0.04509466766922543 -0.008345283904680478 0.1745743033357794
v -0.04606773213805093 -0.004156424242982293 0.14850000705337152
v -0.040736829785237294 -0.021064066933716985 0.1745743033357794
v -0.04300709356494403 -0.017026793334974366 0.14850000705337152
v -0.0426402760731559 -0.01688156780317418 0.1745743033357794
v -0.035342607269504 -0.028694415501705484 0.1864293301439801
v -0.040438222898495635 -0.020909663239859766 0.1864293301439801
v -0.03810332288525009 -0.02491192554543553 0.1864293301439801
v -0.044764116506064155 -0.00828411237009774 0.1864293301439801
v -0.04567480685693681 -0.004120972829097513 0.1745743033357794
v -0.04534000230612234 -0.004090765670527741 0.1864293301439801
v -0.045524160640064704 4.1036741111477264e-10 0.1864293301439801
v -0.04586032703786769 4.1036741111477264e-10 0.1745743033357794
v -0.04376680582026671 -0.012526877998254027 0.1864293301439801
v -0.046254846862514576 4.1036738269306186e-10 0.14850000705337152
v -0.0423277150231538 -0.016757822832697 0.1864293301439801
v -0.0321902137787089 -0.032190995791685495 0.1864293301439801
v 1.032557533003655e-12 -0.04506980728596455 0.19699999409820812
v -0.004090538219192474 -0.045340021379609574 0.1864293301439801
v -0.00820100346417274 -0.0443174230644372 0.19699999409820812
v -0.004049712373442316 -0.044887502894981335 0.19699999409820812
v -0.01658984072327785 -0.041905550086109855 0.19699999409820812
v -0.024662442425065212 -0.037723585013209604 0.19699999409820812
v -0.02070015814873205 -0.04003504752534193 0.19699999409820812
v -0.01240125333560993 -0.04333016029171466 0.19699999409820812
v -0.028407195486842562 -0.034990545027440145 0.19699999409820812
v -0.03186893805238955 -0.031869712435971254 0.19699999409820812
v -0.04003462790862278 -0.020700972586636945 0.19699999409820812
v -0.037723031882079816 -0.024663291195247128 0.19699999409820812
v -0.04332998863032955 -0.012401853196783441 0.19699999409820812
v -0.0448874838214941 -0.004049937440591678 0.19699999409820812
v -0.044317346770488264 -0.008201431663961145 0.19699999409820812
v -0.0419052601691039 -0.016590571237838914 0.19699999409820812
v -0.03498986982599206 -0.02840802899823469 0.19699999409820812
v -0.04506980728596455 4.1036741111477264e-10 0.19699999409820812
v -0.04409007091130457 0.01261884558532489 0.1745743033357794
v -0.04446936246374378 0.01272740138424322 0.14850000705337152
v -0.04548263765835614 0.008416673106374506 0.14850000705337152
v -0.042640394328776754 0.016880944100141626 0.1745743033357794
v -0.04300721563526233 0.017026163909895642 0.14850000705337152
v -0.0450947058161999 0.008344885268797286 0.1745743033357794
v -0.046067739767445826 0.0041562034673675585 0.14850000705337152
v -0.04108743862757391 0.021244601305084876 0.14850000705337152
v -0.04073699381722751 0.021063399361663793 0.1745743033357794
v -0.03591009692048175 0.029154344036124158 0.14850000705337152
v -0.038715097358887895 0.02531110311566498 0.14850000705337152
v -0.035603811047779654 0.028905677261007456 0.1745743033357794
v -0.03838488570379939 0.02509521794305747 0.1745743033357794
v -0.03242814790255899 0.03242814790255899 0.1745743033357794
v -0.045674814486331705 0.0041207539608315025 0.1745743033357794
v -0.04534001375021468 0.004090548232773272 0.1864293301439801
v -0.043766882114215644 0.01252634775530892 0.1864293301439801
v -0.04476415083834118 0.008283715641563272 0.1864293301439801
v -0.0404383831157884 0.020909001389852744 0.1864293301439801
v -0.035342828521955916 0.028693793706021653 0.1864293301439801
v -0.03810351743481988 0.024911265602777233 0.1864293301439801
v -0.04232783327877465 0.016757202944361893 0.1864293301439801
v -0.032707116726844454 0.032707116726844454 0.14850000705337152
v -0.017026163909895642 0.04300721563526233 0.14850000705337152
v -0.021244601305084876 0.04108743862757391 0.14850000705337152
v -0.021063399361663793 0.04073699381722751 0.1745743033357794
v -0.02531110311566498 0.038715097358887895 0.14850000705337152
v -0.029154342128775435 0.03591009692048175 0.14850000705337152
v -0.028905677261007456 0.035603811047779654 0.1745743033357794
v -0.02509521794305747 0.03838488570379939 0.1745743033357794
v -0.008344885268797286 0.0450947058161999 0.1745743033357794
v -0.004156202990530378 0.046067739767445826 0.14850000705337152
v -0.008416673106374506 0.04548263765835614 0.14850000705337152
v -0.01261884558532489 0.04409007091130457 0.1745743033357794
v -0.012727400430568858 0.04446936246374378 0.14850000705337152
v -0.0041207539608315025 0.04567481830102915 0.1745743033357794
v 1.0315728761563463e-12 0.046254846862514576 0.14850000705337152
v -0.016880944100141626 0.042640394328776754 0.1745743033357794
v -0.028693793706021653 0.035342828521955916 0.1864293301439801
v -0.020909001389852744 0.0404383831157884 0.1864293301439801
v -0.024911265602777233 0.03810351743481988 0.1864293301439801
v -0.012526346801634558 0.043766882114215644 0.1864293301439801
v -0.0040905477559360914 0.04534001375021468 0.1864293301439801
v 1.0315786493163485e-12 0.04586032703786769 0.1745743033357794
v -0.008283715641563272 0.044764154653038624 0.1864293301439801
v -0.016757202944361893 0.04232783327877465 0.1864293301439801
v -0.03219044266055571 0.03219044266055571 0.1864293301439801
v 1.031582646119427e-12 0.045524160640064704 0.1864293301439801
v -0.04488749526558644 0.004049722387023114 0.19699999409820812
v -0.044317381102765285 0.008201039703798485 0.19699999409820812
v -0.04190537842472475 0.016589957071549977 0.19699999409820812
v -0.037723226431649604 0.024662636974635 0.19699999409820812
v -0.040034788125915544 0.020700318366024817 0.19699999409820812
v -0.04333006492427849 0.012401327722210143 0.19699999409820812
v -0.03499008726374653 0.028407414831945754 0.19699999409820812
v -0.031869165026887636 0.031869165026887636 0.19699999409820812
v -0.028407414831945754 0.03499008726374653 0.19699999409820812
v -0.020700318366024817 0.040034788125915544 0.19699999409820812
v -0.024662636974635 0.037723226431649604 0.19699999409820812
v -0.008201039703798485 0.044317381102765285 0.19699999409820812
v -0.012401327722210143 0.04333006492427849 0.19699999409820812
v -0.016589957071549977 0.04190537842472475 0.19699999409820812
v -0.004049721910185933 0.04488749526558644 0.19699999409820812
v 1.0315876421232751e-12 0.04506980728596455 0.19699999409820812
v 0.024662442425065212 0.037723585013209604 0.19699999409820812
v 0.02070015814873205 0.040035051340039374 0.19699999409820812
v 0.04003462790862278 0.02070097449398567 0.19699999409820812
v 0.037723031882079816 0.024663291195247128 0.19699999409820812
v 0.028407195486842562 0.034990545027440145 0.19699999409820812
v 0.0419052601691039 0.016590571237838914 0.19699999409820812
v 0.01658984072327785 0.041905550086109855 0.19699999409820812
v 0.044317346770488264 0.008201432617635507 0.19699999409820812
v 0.01240125333560993 0.043330164106412106 0.19699999409820812
v 0.00820100346417274 0.04431742687913465 0.19699999409820812
v 0.04332998863032955 0.012401854150457803 0.19699999409820812
v 0.0448874838214941 0.004049938394266039 0.19699999409820812
v 0.004049712373442316 0.04488750670967878 0.19699999409820812
v 0.03498986982599206 0.02840802899823469 0.19699999409820812
v 0.03186893805238955 0.031869712435971254 0.19699999409820812
v 0.04506980728596455 4.1036837745293917e-10 0.19699999409820812
v 1.0315876421232751e-12 0.04506980728596455 0.19699999409820812
v -0.008201039703798485 0.044317381102765285 0.19699999409820812
v -0.004049721910185933 0.04488749526558644 0.19699999409820812
v -0.012401327722210143 0.04333006492427849 0.19699999409820812
v -0.020700318366024817 0.040034788125915544 0.19699999409820812
v -0.028407414831945754 0.03499008726374653 0.19699999409820812
v -0.016589957071549977 0.04190537842472475 0.19699999409820812
v -0.024662636974635 0.037723226431649604 0.19699999409820812
v -0.04333006492427849 0.012401327722210143 0.19699999409820812
v -0.03499008726374653 0.028407414831945754 0.19699999409820812
v -0.040034788125915544 0.020700318366024817 0.19699999409820812
v -0.037723226431649604 0.024662636974635 0.19699999409820812
v -0.031869165026887636 0.031869165026887636 0.19699999409820812
v -0.04190537842472475 0.016589957071549977 0.19699999409820812
v -0.044317381102765285 0.008201039703798485 0.19699999409820812
v -0.04488749526558644 0.004049722387023114 0.19699999409820812
v 0.008201039703798485 -0.044317381102765285 0.19699999409820812
v 0.04333006492427849 -0.01240132676853578 0.19699999409820812
v 0.044317381102765285 -0.008201038750124123 0.19699999409820812
v 0.04488749526558644 -0.004049721433348752 0.19699999409820812
v 0.04190537842472475 -0.016589957071549977 0.19699999409820812
v 0.040034788125915544 -0.020700318366024817 0.19699999409820812
v 0.03499008726374653 -0.02840741292459703 0.19699999409820812
v 0.037723226431649604 -0.024662636974635 0.19699999409820812
v 0.031869165026887636 -0.031869165026887636 0.19699999409820812
v 0.028407414831945754 -0.03499008726374653 0.19699999409820812
v 0.020700318366024817 -0.040034788125915544 0.19699999409820812
v 0.024662636974635 -0.037723226431649604 0.19699999409820812
v 0.016589957071549977 -0.04190537842472475 0.19699999409820812
v 0.012401327722210143 -0.04333006492427849 0.19699999409820812
v 0.004049721910185933 -0.04488749526558644 0.19699999409820812
v 1.032557533003655e-12 -0.04506980728596455 0.19699999409820812
v -0.04506980728596455 4.1036741111477264e-10 0.19699999409820812
v -0.04003462790862278 -0.020700972586636945 0.19699999409820812
v -0.037723031882079816 -0.024663291195247128 0.19699999409820812
v -0.024662442425065212 -0.037723585013209604 0.19699999409820812
v -0.03498986982599206 -0.02840802899823469 0.19699999409820812
v -0.028407195486842562 -0.034990545027440145 0.19699999409820812
v -0.0419052601691039 -0.016590571237838914 0.19699999409820812
v -0.02070015814873205 -0.04003504752534193 0.19699999409820812
v -0.00820100346417274 -0.0443174230644372 0.19699999409820812
v -0.0448874838214941 -0.004049937440591678 0.19699999409820812
v -0.044317346770488264 -0.008201431663961145 0.19699999409820812
v -0.04332998863032955 -0.012401853196783441 0.19699999409820812
v -0.01240125333560993 -0.04333016029171466 0.19699999409820812
v -0.01658984072327785 -0.041905550086109855 0.19699999409820812
v -0.004049712373442316 -0.044887502894981335 0.19699999409820812
v -0.03186893805238955 -0.031869712435971254 0.19699999409820812
v -0.02144855219673003 -0.04012742042401651 0.14850000705337152
v -0.02531090284404902 -0.038715467384540236 0.14850000705337152
v -0.025278447398171533 -0.03783186901493485 0.14850000705337152
v -0.021244437273094663 -0.04108770947109264 0.14850000705337152
v -0.017412096850589753 -0.0420365200935513 0.14850000705337152
v -0.017026043746926067 -0.043007391111344884 0.14850000705337152
v -0.029154118968974796 -0.03591056612826771 0.14850000705337152
v -0.0327068840303002 -0.032707677487369136 0.14850000705337152
v -0.028864896237952298 -0.03517197585270804 0.14850000705337152
v -0.0084166359130744 -0.0454826834347255 0.14850000705337152
v -0.004459779951208054 -0.045280908827973754 0.14850000705337152
v -0.004156193453786761 -0.046067751211538166 0.14850000705337152
v -0.008876610223862436 -0.044625730726786106 0.14850000705337152
v 4.765872168250374e-16 -0.045500002161134034 0.14850000705337152
v 1.0325720769259684e-12 -0.046254846862514576 0.14850000705337152
v -0.013207953126733729 -0.04354078881124046 0.14850000705337152
v -0.012727325090294284 -0.044469461645877395 0.14850000705337152
v -0.03217336044538888 -0.03217336044538888 0.14850000705337152
v -0.04446928616979484 -0.012727941163931944 0.14850000705337152
v -0.044625730726786106 -0.008876610223862436 0.14850000705337152
v -0.04354078881124046 -0.013207953126733729 0.14850000705337152
v -0.04548260332607912 -0.008417075556955145 0.14850000705337152
v -0.04300709356494403 -0.017026793334974366 0.14850000705337152
v -0.0420365200935513 -0.017412096850589753 0.14850000705337152
v -0.04606773213805093 -0.004156424242982293 0.14850000705337152
v -0.045500002161134034 -4.682289934601351e-16 0.14850000705337152
v -0.045280908827973754 -0.004459779951208054 0.14850000705337152
v -0.046254846862514576 4.1036738269306186e-10 0.14850000705337152
v -0.03517197585270804 -0.028864896237952298 0.14850000705337152
v -0.03590987185333239 -0.029154973461202882 0.14850000705337152
v -0.03783186901493485 -0.025278447398171533 0.14850000705337152
v -0.03871489899462066 -0.025311774502415618 0.14850000705337152
v -0.0410872745955837 -0.021245272691835515 0.14850000705337152
v -0.04012742042401651 -0.02144855219673003 0.14850000705337152
v 0.004156202990530378 -0.046067739767445826 0.14850000705337152
v 0.008416673106374506 -0.04548263765835614 0.14850000705337152
v 0.004459779951208054 -0.045280908827973754 0.14850000705337152
v 0.008876610223862436 -0.044625730726786106 0.14850000705337152
v 0.012727400430568858 -0.04446935864904633 0.14850000705337152
v 0.013207953126733729 -0.04354078881124046 0.14850000705337152
v 0.017026163909895642 -0.04300721563526233 0.14850000705337152
v 0.017412096850589753 -0.0420365200935513 0.14850000705337152
v 0.021244601305084876 -0.04108743862757391 0.14850000705337152
v 0.02144855219673003 -0.04012742042401651 0.14850000705337152
v 0.02531110311566498 -0.038715097358887895 0.14850000705337152
v 0.025278447398171533 -0.03783186901493485 0.14850000705337152
v 0.028864896237952298 -0.03517197585270804 0.14850000705337152
v 0.029154342128775435 -0.03591009692048175 0.14850000705337152
v 0.032707116726844454 -0.032707116726844454 0.14850000705337152
v 0.03217336044538888 -0.03217336044538888 0.14850000705337152
v 0.03517197585270804 -0.028864896237952298 0.14850000705337152
v 0.03591009692048175 -0.029154342128775435 0.14850000705337152
v 0.03783186901493485 -0.025278447398171533 0.14850000705337152
v 0.038715097358887895 -0.02531110311566498 0.14850000705337152
v 0.04012742042401651 -0.02144855219673003 0.14850000705337152
v 0.04108743862757391 -0.021244599397736152 0.14850000705337152
v 0.0420365200935513 -0.017412096850589753 0.14850000705337152
v 0.04300721563526233 -0.017026163909895642 0.14850000705337152
v 0.04354078881124046 -0.013207953126733729 0.14850000705337152
v 0.04446936246374378 -0.012727400430568858 0.14850000705337152
v 0.044625730726786106 -0.008876610223862436 0.14850000705337152
v 0.04548263765835614 -0.008416672152700144 0.14850000705337152
v 0.045280908827973754 -0.004459779951208054 0.14850000705337152
v 0.046067739767445826 -0.004156202990530378 0.14850000705337152
v 0.045500002161134034 4.7380114237007e-16 0.14850000705337152
v 0.046254846862514576 4.1036840587464995e-10 0.14850000705337152
v -0.046067739767445826 0.0041562034673675585 0.14850000705337152
v -0.045280908827973754 0.004459779951208054 0.14850000705337152
v -0.04548263765835614 0.008416673106374506 0.14850000705337152
v -0.044625730726786106 0.008876610223862436 0.14850000705337152
v -0.04446936246374378 0.01272740138424322 0.14850000705337152
v -0.04354078881124046 0.013207953126733729 0.14850000705337152
v -0.04300721563526233 0.017026163909895642 0.14850000705337152
v -0.0420365200935513 0.017412096850589753 0.14850000705337152
v -0.04108743862757391 0.021244601305084876 0.14850000705337152
v -0.04012742042401651 0.02144855219673003 0.14850000705337152
v -0.038715097358887895 0.02531110311566498 0.14850000705337152
v -0.03783186901493485 0.025278447398171533 0.14850000705337152
v -0.03591009692048175 0.029154344036124158 0.14850000705337152
v -0.03517197585270804 0.028864896237952298 0.14850000705337152
v -0.032707116726844454 0.032707116726844454 0.14850000705337152
v -0.03217336044538888 0.03217336044538888 0.14850000705337152
v -0.029154342128775435 0.03591009692048175 0.14850000705337152
v -0.028864896237952298 0.03517197585270804 0.14850000705337152
v -0.025278447398171533 0.03783186901493485 0.14850000705337152
v -0.02531110311566498 0.038715097358887895 0.14850000705337152
v -0.02144855219673003 0.04012742042401651 0.14850000705337152
v -0.021244601305084876 0.04108743862757391 0.14850000705337152
v -0.017412096850589753 0.0420365200935513 0.14850000705337152
v -0.017026163909895642 0.04300721563526233 0.14850000705337152
v -0.013207953126733729 0.04354078881124046 0.14850000705337152
v -0.012727400430568858 0.04446936246374378 0.14850000705337152
v -0.008876610223862436 0.044625730726786106 0.14850000705337152
v -0.008416673106374506 0.04548263765835614 0.14850000705337152
v -0.004459779951208054 0.045280908827973754 0.14850000705337152
v -0.004156202990530378 0.046067739767445826 0.14850000705337152
v -4.710150679151026e-16 0.045500002161134034 0.14850000705337152
v 1.0315728761563463e-12 0.046254846862514576 0.14850000705337152
v 0.0410872745955837 0.02124527459918424 0.14850000705337152
v 0.04012742042401651 0.02144855219673003 0.14850000705337152
v 0.03871489899462066 0.025311774502415618 0.14850000705337152
v 0.0420365200935513 0.017412096850589753 0.14850000705337152
v 0.04300709356494403 0.01702679524232309 0.14850000705337152
v 0.03783186901493485 0.025278447398171533 0.14850000705337152
v 0.03590987185333239 0.029154975368551606 0.14850000705337152
v 0.03517197585270804 0.028864896237952298 0.14850000705337152
v 0.0327068840303002 0.032707677487369136 0.14850000705337152
v 0.03217336044538888 0.03217336044538888 0.14850000705337152
v 0.045280908827973754 0.004459779951208054 0.14850000705337152
v 0.04548260332607912 0.008417076510629506 0.14850000705337152
v 0.04606773213805093 0.0041564251966566546 0.14850000705337152
v 0.044625730726786106 0.008876610223862436 0.14850000705337152
v 0.04354078881124046 0.013207953126733729 0.14850000705337152
v 0.04446928616979484 0.012727942117606306 0.14850000705337152
v 0.012727325090294284 0.044469461645877395 0.14850000705337152
v 0.008876610223862436 0.044625730726786106 0.14850000705337152
v 0.0084166359130744 0.0454826834347255 0.14850000705337152
v 0.013207953126733729 0.04354078881124046 0.14850000705337152
v 0.017026043746926067 0.043007391111344884 0.14850000705337152
v 0.017412096850589753 0.0420365200935513 0.14850000705337152
v 0.004156193453786761 0.046067751211538166 0.14850000705337152
v 0.004459779951208054 0.045280908827973754 0.14850000705337152
v 0.028864896237952298 0.03517197585270804 0.14850000705337152
v 0.025278447398171533 0.03783186901493485 0.14850000705337152
v 0.029154118968974796 0.03591056612826771 0.14850000705337152
v 0.02531090284404902 0.038715467384540236 0.14850000705337152
v 0.021244437273094663 0.04108770947109264 0.14850000705337152
v 0.02144855219673003 0.04012742042401651 0.14850000705337152
v -0.004459779951208054 0.045280908827973754 0.14350000681588426
v -0.008876610223862436 0.044625730726786106 0.14350000681588426
v -0.008876610223862436 0.044625730726786106 0.14850000705337152
v -0.004459779951208054 0.045280908827973754 0.14850000705337152
v -0.013207953126733729 0.04354078881124046 0.14350000681588426
v -0.017412096850589753 0.0420365200935513 0.14350000681588426
v -0.013207953126733729 0.04354078881124046 0.14850000705337152
v -0.02144855219673003 0.04012742042401651 0.14350000681588426
v -0.025278447398171533 0.03783186901493485 0.14350000681588426
v -0.025278447398171533 0.03783186901493485 0.14850000705337152
v -0.017412096850589753 0.0420365200935513 0.14850000705337152
v -0.028864896237952298 0.03517197585270804 0.14350000681588426
v -0.03217336044538888 0.03217336044538888 0.14350000681588426
v -0.028864896237952298 0.03517197585270804 0.14850000705337152
v -0.03517197585270804 0.028864896237952298 0.14350000681588426
v -0.03783186901493485 0.025278447398171533 0.14350000681588426
v -0.03783186901493485 0.025278447398171533 0.14850000705337152
v -0.03217336044538888 0.03217336044538888 0.14850000705337152
v -0.04012742042401651 0.02144855219673003 0.14350000681588426
v -0.0420365200935513 0.017412096850589753 0.14350000681588426
v -0.0420365200935513 0.017412096850589753 0.14850000705337152
v -0.04354078881124046 0.013207953126733729 0.14350000681588426
v -0.044625730726786106 0.008876610223862436 0.14350000681588426
v -0.044625730726786106 0.008876610223862436 0.14850000705337152
v -0.04354078881124046 0.013207953126733729 0.14850000705337152
v -0.04012742042401651 0.02144855219673003 0.14850000705337152
v -0.02144855219673003 0.04012742042401651 0.14850000705337152
v -0.03517197585270804 0.028864896237952298 0.14850000705337152
v -0.045280908827973754 0.004459779951208054 0.14850000705337152
v -0.045280908827973754 0.004459779951208054 0.14350000681588426
v -0.004459779951208054 -0.045280908827973754 0.14850000705337152
v -0.045500002161134034 -4.682289934601351e-16 0.14350000681588426
v -0.045280908827973754 -0.004459779951208054 0.14350000681588426
v -0.045280908827973754 -0.004459779951208054 0.14850000705337152
v -0.044625730726786106 -0.008876610223862436 0.14350000681588426
v -0.04354078881124046 -0.013207953126733729 0.14350000681588426
v -0.04354078881124046 -0.013207953126733729 0.14850000705337152
v -0.044625730726786106 -0.008876610223862436 0.14850000705337152
v -0.0420365200935513 -0.017412096850589753 0.14350000681588426
v -0.04012742042401651 -0.02144855219673003 0.14350000681588426
v -0.04012742042401651 -0.02144855219673003 0.14850000705337152
v -0.03783186901493485 -0.025278447398171533 0.14350000681588426
v -0.03517197585270804 -0.028864896237952298 0.14350000681588426
v -0.03517197585270804 -0.028864896237952298 0.14850000705337152
v -0.03783186901493485 -0.025278447398171533 0.14850000705337152
v -0.0420365200935513 -0.017412096850589753 0.14850000705337152
v -0.03217336044538888 -0.03217336044538888 0.14350000681588426
v -0.028864896237952298 -0.03517197585270804 0.14350000681588426
v -0.028864896237952298 -0.03517197585270804 0.14850000705337152
v -0.025278447398171533 -0.03783186901493485 0.14350000681588426
v -0.02144855219673003 -0.04012742042401651 0.14350000681588426
v -0.02144855219673003 -0.04012742042401651 0.14850000705337152
v -0.025278447398171533 -0.03783186901493485 0.14850000705337152
v -0.017412096850589753 -0.0420365200935513 0.14350000681588426
v -0.013207953126733729 -0.04354078881124046 0.14350000681588426
v -0.013207953126733729 -0.04354078881124046 0.14850000705337152
v -0.008876610223862436 -0.044625730726786106 0.14350000681588426
v -0.004459779951208054 -0.045280908827973754 0.14350000681588426
v -0.008876610223862436 -0.044625730726786106 0.14850000705337152
v -0.017412096850589753 -0.0420365200935513 0.14850000705337152
v -0.03217336044538888 -0.03217336044538888 0.14850000705337152
v -0.045500002161134034 -4.682289934601351e-16 0.14850000705337152
v -0.013207953126733729 -0.04354078881124046 0.14350000681588426
v -0.017412096850589753 -0.0420365200935513 0.14350000681588426
v -0.02144855219673003 -0.04012742042401651 0.14350000681588426
v -0.03783186901493485 -0.025278447398171533 0.14350000681588426
v -0.008876610223862436 -0.044625730726786106 0.14350000681588426
v -0.025278447398171533 -0.03783186901493485 0.14350000681588426
v -0.03217336044538888 -0.03217336044538888 0.14350000681588426
v 4.765872168250374e-16 -0.045500002161134034 0.14350000681588426
v -0.004459779951208054 -0.045280908827973754 0.14350000681588426
v 0.017412096850589753 -0.0420365200935513 0.14350000681588426
v -0.028864896237952298 -0.03517197585270804 0.14350000681588426
v -0.0420365200935513 -0.017412096850589753 0.14350000681588426
v -0.04354078881124046 -0.013207953126733729 0.14350000681588426
v -0.044625730726786106 -0.008876610223862436 0.14350000681588426
v -0.044625730726786106 0.008876610223862436 0.14350000681588426
v -0.03517197585270804 -0.028864896237952298 0.14350000681588426
v -0.04012742042401651 -0.02144855219673003 0.14350000681588426
v 0.04012742042401651 -0.02144855219673003 0.14350000681588426
v 0.03783186901493485 0.025278447398171533 0.14350000681588426
v 0.008876610223862436 -0.044625730726786106 0.14350000681588426
v 0.013207953126733729 -0.04354078881124046 0.14350000681588426
v 0.025278447398171533 -0.03783186901493485 0.14350000681588426
v 0.02144855219673003 -0.04012742042401651 0.14350000681588426
v 0.03217336044538888 -0.03217336044538888 0.14350000681588426
v 0.028864896237952298 -0.03517197585270804 0.14350000681588426
v 0.03517197585270804 -0.028864896237952298 0.14350000681588426
v 0.004459779951208054 -0.045280908827973754 0.14350000681588426
v 0.03783186901493485 -0.025278447398171533 0.14350000681588426
v 0.044625730726786106 -0.008876610223862436 0.14350000681588426
v 0.0420365200935513 -0.017412096850589753 0.14350000681588426
v 0.04354078881124046 -0.013207953126733729 0.14350000681588426
v 0.045500002161134034 4.7380114237007e-16 0.14350000681588426
v 0.045280908827973754 -0.004459779951208054 0.14350000681588426
v 0.044625730726786106 0.008876610223862436 0.14350000681588426
v -0.045280908827973754 -0.004459779951208054 0.14350000681588426
v -0.045500002161134034 -4.682289934601351e-16 0.14350000681588426
v -0.045280908827973754 0.004459779951208054 0.14350000681588426
v 0.004459779951208054 0.045280908827973754 0.14350000681588426
v -0.04012742042401651 0.02144855219673003 0.14350000681588426
v -0.04354078881124046 0.013207953126733729 0.14350000681588426
v -0.03783186901493485 0.025278447398171533 0.14350000681588426
v -0.028864896237952298 0.03517197585270804 0.14350000681588426
v -0.0420365200935513 0.017412096850589753 0.14350000681588426
v -0.03517197585270804 0.028864896237952298 0.14350000681588426
v -0.025278447398171533 0.03783186901493485 0.14350000681588426
v -0.02144855219673003 0.04012742042401651 0.14350000681588426
v -0.008876610223862436 0.044625730726786106 0.14350000681588426
v -0.013207953126733729 0.04354078881124046 0.14350000681588426
v -0.017412096850589753 0.0420365200935513 0.14350000681588426
v -0.03217336044538888 0.03217336044538888 0.14350000681588426
v -0.004459779951208054 0.045280908827973754 0.14350000681588426
v -4.710150679151026e-16 0.045500002161134034 0.14350000681588426
v 0.03217336044538888 0.03217336044538888 0.14350000681588426
v 0.03517197585270804 0.028864896237952298 0.14350000681588426
v 0.04012742042401651 0.02144855219673003 0.14350000681588426
v 0.0420365200935513 0.017412096850589753 0.14350000681588426
v 0.04354078881124046 0.013207953126733729 0.14350000681588426
v 0.045280908827973754 0.004459779951208054 0.14350000681588426
v 0.008876610223862436 0.044625730726786106 0.14350000681588426
v 0.013207953126733729 0.04354078881124046 0.14350000681588426
v 0.028864896237952298 0.03517197585270804 0.14350000681588426
v 0.025278447398171533 0.03783186901493485 0.14350000681588426
v 0.02144855219673003 0.04012742042401651 0.14350000681588426
v 0.017412096850589753 0.0420365200935513 0.14350000681588426
usemtl Diffuse_3
f 1 2 3
f 4 5 6
f 2 4 7
f 8 9 10
f 11 12 13
f 9 11 14
f 5 8 15
f 16 17 18
f 19 20 21
f 17 19 22
f 23 24 25
f 26 27 28
f 24 26 29
f 20 23 30
f 12 16 18
f 3 2 7
f 6 5 15
f 4 6 7
f 31 8 10
f 14 11 13
f 9 14 10
f 8 31 15
f 18 17 22
f 19 21 32
f 32 22 19
f 13 12 18
f 21 20 30
f 25 24 29
f 29 26 28
f 23 25 30
f 33 28 27
f 27 34 33
f 35 36 37
f 38 39 40
f 36 38 41
f 42 43 44
f 45 46 47
f 43 45 48
f 39 42 49
f 50 51 52
f 53 54 55
f 51 53 56
f 57 58 59
f 60 61 62
f 58 60 63
f 54 57 64
f 46 50 65
f 33 34 66
f 41 37 36
f 66 35 37
f 49 40 39
f 48 44 43
f 49 42 44
f 41 38 40
f 65 47 46
f 56 52 51
f 65 50 52
f 64 55 54
f 63 59 58
f 62 63 60
f 64 57 59
f 56 53 55
f 48 45 47
f 66 34 35
f 67 68 69
f 70 71 67
f 71 72 73
f 74 75 73
f 76 77 78
f 77 75 79
f 80 76 81
f 82 83 69
f 83 67 69
f 84 72 70
f 70 67 83
f 71 70 72
f 85 70 83
f 86 79 74
f 74 73 72
f 87 81 78
f 78 77 79
f 74 79 75
f 88 78 79
f 78 81 76
f 89 74 72
f 81 90 80
f 91 92 93
f 94 95 90
f 96 92 94
f 97 98 99
f 98 100 101
f 102 103 91
f 99 103 104
f 105 96 90
f 96 94 90
f 106 102 93
f 102 91 93
f 96 93 92
f 107 93 96
f 104 97 99
f 103 102 104
f 108 100 97
f 100 98 97
f 109 101 100
f 110 109 100
f 111 112 109
f 113 97 104
f 109 114 101
f 115 104 102
f 80 90 95
f 116 90 81
f 117 118 82
f 118 83 82
f 119 84 85
f 85 83 118
f 70 85 84
f 120 85 118
f 121 86 89
f 89 72 84
f 122 87 88
f 88 79 86
f 89 86 74
f 123 88 86
f 78 88 87
f 124 89 84
f 120 118 117
f 84 119 124
f 120 119 85
f 123 86 121
f 88 123 122
f 87 122 125
f 89 124 121
f 125 116 87
f 126 105 116
f 116 81 87
f 127 106 107
f 107 96 105
f 116 105 90
f 128 107 105
f 129 113 115
f 115 102 106
f 130 110 108
f 108 97 113
f 115 113 104
f 131 108 113
f 107 106 93
f 132 115 106
f 128 105 133
f 133 105 126
f 128 127 107
f 108 131 130
f 134 110 130
f 132 129 115
f 129 131 113
f 127 132 106
f 111 110 134
f 125 126 116
f 108 110 100
f 112 114 109
f 135 136 137
f 138 139 136
f 140 137 141
f 142 139 143
f 144 145 146
f 145 142 147
f 144 146 148
f 149 112 150
f 141 112 149
f 135 140 151
f 137 140 135
f 140 141 149
f 140 149 152
f 143 138 153
f 139 138 143
f 146 147 154
f 145 147 146
f 147 142 143
f 147 143 155
f 138 136 135
f 138 135 156
f 148 157 144
f 114 112 141
f 158 159 160
f 161 162 163
f 164 159 161
f 165 166 167
f 168 167 169
f 170 171 166
f 172 169 158
f 163 148 173
f 162 148 163
f 160 164 174
f 159 164 160
f 164 161 163
f 164 163 175
f 168 172 176
f 169 172 168
f 170 165 177
f 166 165 170
f 171 170 178
f 179 165 168
f 165 167 168
f 180 172 160
f 172 158 160
f 181 148 146
f 157 148 162
f 182 178 170
f 183 150 111
f 150 112 111
f 184 151 152
f 151 140 152
f 150 152 149
f 183 152 150
f 185 153 156
f 153 138 156
f 186 154 155
f 154 147 155
f 153 155 143
f 187 155 153
f 151 156 135
f 188 156 151
f 183 184 152
f 188 185 156
f 188 151 184
f 186 155 187
f 154 186 189
f 187 153 185
f 181 189 190
f 181 154 189
f 134 183 111
f 191 173 181
f 173 148 181
f 192 174 175
f 174 164 175
f 173 175 163
f 193 175 173
f 180 176 172
f 160 174 180
f 194 179 176
f 179 168 176
f 165 179 177
f 195 176 180
f 181 146 154
f 196 180 174
f 174 192 196
f 192 175 193
f 191 193 173
f 197 198 177
f 182 177 198
f 176 195 194
f 194 197 179
f 180 196 195
f 177 179 197
f 190 191 181
f 182 170 177
f 109 110 111
f 199 200 201
f 202 203 204
f 205 204 200
f 206 207 203
f 208 209 210
f 209 207 211
f 212 208 213
f 214 215 199
f 215 200 199
f 216 202 205
f 205 200 215
f 204 205 202
f 217 205 215
f 218 211 206
f 206 203 202
f 219 213 210
f 210 209 211
f 206 211 207
f 220 210 211
f 210 213 208
f 221 206 202
f 213 222 212
f 223 224 225
f 226 227 222
f 228 224 226
f 229 230 231
f 232 233 229
f 234 235 223
f 230 235 236
f 237 228 222
f 228 226 222
f 238 234 225
f 234 223 225
f 228 225 224
f 239 225 228
f 236 231 230
f 235 234 236
f 240 232 231
f 232 229 231
f 241 233 232
f 242 241 232
f 243 244 241
f 245 231 236
f 241 246 233
f 247 236 234
f 212 222 227
f 248 222 213
f 249 250 214
f 250 215 214
f 251 216 217
f 217 215 250
f 205 217 216
f 252 217 250
f 253 218 221
f 221 202 216
f 254 219 220
f 220 211 218
f 221 218 206
f 255 220 218
f 210 220 219
f 256 221 216
f 252 250 249
f 216 251 256
f 252 251 217
f 255 218 253
f 220 255 254
f 219 254 257
f 221 256 253
f 257 248 219
f 258 237 248
f 248 213 219
f 259 238 239
f 239 228 237
f 248 237 222
f 260 239 237
f 261 245 247
f 247 234 238
f 262 242 240
f 240 231 245
f 247 245 236
f 263 240 245
f 239 238 225
f 264 247 238
f 260 237 265
f 265 237 258
f 260 259 239
f 240 263 262
f 266 242 262
f 264 261 247
f 261 263 245
f 259 264 238
f 243 242 266
f 257 258 248
f 240 242 232
f 244 246 241
f 267 268 269
f 270 271 268
f 272 269 273
f 274 271 275
f 276 277 278
f 277 274 279
f 276 278 280
f 281 244 282
f 273 244 281
f 267 272 283
f 269 272 267
f 272 273 281
f 272 281 284
f 275 270 285
f 271 270 275
f 278 279 286
f 277 279 278
f 279 274 275
f 279 275 287
f 270 268 267
f 270 267 288
f 280 289 276
f 246 244 273
f 290 291 292
f 293 294 295
f 296 291 293
f 297 298 299
f 300 299 301
f 302 303 298
f 304 301 290
f 295 280 305
f 294 280 295
f 292 296 306
f 291 296 292
f 296 293 295
f 296 295 307
f 300 304 308
f 301 304 300
f 302 297 309
f 298 297 302
f 303 302 310
f 311 297 300
f 297 299 300
f 312 304 292
f 304 290 292
f 313 280 278
f 289 280 294
f 314 310 302
f 315 282 243
f 282 244 243
f 316 283 284
f 283 272 284
f 282 284 281
f 315 284 282
f 317 285 288
f 285 270 288
f 318 286 287
f 286 279 287
f 285 287 275
f 319 287 285
f 283 288 267
f 320 288 283
f 315 316 284
f 320 317 288
f 320 283 316
f 318 287 319
f 286 318 321
f 319 285 317
f 313 321 322
f 313 286 321
f 266 315 243
f 323 305 313
f 305 280 313
f 324 306 307
f 306 296 307
f 305 307 295
f 325 307 305
f 312 308 304
f 292 306 312
f 326 311 308
f 311 300 308
f 297 311 309
f 327 308 312
f 313 278 286
f 328 312 306
f 306 324 328
f 324 307 325
f 323 325 305
f 329 330 309
f 314 309 330
f 308 327 326
f 326 329 311
f 312 328 327
f 309 311 329
f 322 323 313
f 314 302 309
f 241 242 243
f 331 332 333
f 334 335 331
f 336 332 337
f 338 339 340
f 341 337 339
f 342 340 343
f 335 344 345
f 339 338 341
f 340 342 338
f 343 346 342
f 331 333 334
f 333 332 336
f 337 341 336
f 344 335 334
f 347 346 343
f 348 347 349
f 348 350 351
f 352 346 348
f 351 350 353
f 351 354 352
f 351 352 348
f 348 346 347
f 355 356 357
f 356 358 357
f 356 352 359
f 355 357 360
f 355 361 362
f 356 355 352
f 352 355 362
f 352 362 363
f 363 346 352
f 364 365 366
f 366 367 364
f 368 367 366
f 369 370 368
f 363 369 368
f 368 346 363
f 371 369 372
f 373 374 372
f 369 363 373
f 375 373 376
f 362 377 363
f 378 377 362
f 376 373 363
f 369 373 372
f 379 378 362
f 380 381 382
f 381 383 384
f 385 380 386
f 387 388 389
f 389 390 391
f 390 385 392
f 379 388 393
f 391 390 392
f 389 391 387
f 385 386 392
f 384 383 394
f 382 381 384
f 380 382 386
f 393 388 387
f 393 378 379
f 368 366 346
f 395 396 397
f 396 395 398
f 399 398 395
f 398 399 400
f 401 402 403
f 403 397 401
f 401 397 396
f 404 405 406
f 405 404 407
f 406 408 409
f 408 406 405
f 410 400 399
f 400 410 411
f 407 411 410
f 411 407 404
f 403 402 412
f 413 414 415
f 414 413 416
f 417 415 418
f 415 417 413
f 419 420 421
f 420 419 422
f 416 421 414
f 421 416 419
f 423 424 425
f 412 402 423
f 424 426 425
f 423 402 424
f 427 418 428
f 418 427 417
f 425 426 428
f 428 426 427
f 409 408 429
f 430 431 432
f 431 430 429
f 432 433 430
f 433 432 434
f 434 435 433
f 435 434 436
f 436 437 435
f 437 436 438
f 438 439 437
f 439 438 440
f 440 441 442
f 443 442 441
f 440 442 439
f 441 444 443
f 429 408 431
f 445 446 443
f 447 448 446
f 446 445 447
f 445 443 444
f 449 450 448
f 450 451 452
f 451 450 449
f 449 448 447
f 452 453 454
f 453 452 451
f 454 455 456
f 455 454 453
f 456 457 458
f 457 456 455
f 458 459 460
f 459 458 457
f 461 462 420
f 462 463 464
f 463 462 461
f 464 465 466
f 465 464 463
f 466 467 468
f 467 466 465
f 468 469 470
f 469 468 467
f 471 472 470
f 470 469 471
f 473 474 472
f 475 476 474
f 474 473 475
f 473 472 471
f 475 477 478
f 479 478 477
f 477 480 479
f 480 481 479
f 481 480 482
f 482 483 481
f 483 482 484
f 484 485 483
f 485 484 486
f 486 487 485
f 487 486 488
f 489 488 490
f 488 489 487
f 491 490 492
f 490 491 489
f 478 476 475
f 493 494 495
f 496 493 497
f 493 496 494
f 494 498 495
f 499 500 501
f 495 498 499
f 500 502 501
f 499 498 500
f 503 504 505
f 504 503 506
f 460 459 505
f 507 497 508
f 497 507 496
f 506 508 504
f 508 506 507
f 459 503 505
f 509 510 511
f 510 509 512
f 513 512 509
f 512 513 514
f 515 516 491
f 516 511 510
f 511 516 515
f 517 518 519
f 519 501 517
f 518 520 519
f 502 517 501
f 521 514 513
f 514 521 522
f 520 522 521
f 522 520 518
f 492 515 491
f 422 461 420
f 523 524 525
f 61 523 526
f 527 528 529
f 530 531 532
f 528 530 533
f 524 527 529
f 534 535 536
f 537 538 539
f 535 537 540
f 541 542 543
f 544 545 546
f 542 544 547
f 538 541 548
f 531 534 536
f 526 523 525
f 61 526 62
f 529 528 533
f 549 530 532
f 530 549 533
f 524 529 525
f 536 535 540
f 537 539 550
f 550 540 537
f 532 531 536
f 539 538 548
f 543 542 547
f 547 544 546
f 541 543 548
f 551 546 545
f 545 552 551
f 1 3 553
f 554 555 556
f 557 558 559
f 555 557 560
f 561 562 563
f 564 565 566
f 562 564 567
f 558 561 568
f 569 570 571
f 572 573 574
f 570 572 575
f 576 577 578
f 579 580 553
f 577 579 581
f 573 576 582
f 565 569 583
f 551 552 584
f 560 556 555
f 584 554 556
f 568 559 558
f 567 563 562
f 568 561 563
f 560 557 559
f 583 566 565
f 575 571 570
f 583 569 571
f 582 574 573
f 581 578 577
f 553 581 579
f 582 576 578
f 575 572 574
f 567 564 566
f 580 1 553
f 584 552 554
f 585 586 587
f 588 589 587
f 587 590 591
f 592 593 589
f 585 587 589
f 594 592 589
f 590 595 591
f 596 597 598
f 588 596 599
f 598 599 596
f 600 588 587
f 601 596 588
f 588 602 589
f 591 600 587
f 602 588 603
f 604 592 594
f 594 605 604
f 594 589 606
f 607 594 606
f 608 609 606
f 606 610 608
f 611 592 604
f 612 610 602
f 613 614 602
f 606 589 610
f 615 614 613
f 616 617 613
f 613 618 616
f 602 610 589
f 618 613 602
f 599 598 619
f 620 621 599
f 599 622 588
f 623 599 624
f 623 625 599
f 625 626 599
f 624 627 623
f 628 626 625
f 599 626 622
f 629 630 626
f 631 626 630
f 632 631 630
f 631 622 626
f 630 633 632
f 626 628 634
f 635 636 631
f 622 637 603
f 637 638 603
f 603 639 640
f 602 603 618
f 641 618 603
f 640 641 603
f 642 616 618
f 643 644 622
f 637 622 645
f 622 644 645
f 646 645 647
f 647 645 644
f 644 648 647
f 622 603 588
f 636 622 631
f 619 620 599
